<?xml version="1.0" encoding="UTF-8"?>
<!-- Created with Inkscape (http://www.inkscape.org/) -->
<svg width="48.065" height="31.925" version="1.1" xmlns="http://www.w3.org/2000/svg" xmlns:cc="http://creativecommons.org/ns#" xmlns:dc="http://purl.org/dc/elements/1.1/" xmlns:rdf="http://www.w3.org/1999/02/22-rdf-syntax-ns#" xmlns:xlink="http://www.w3.org/1999/xlink">
 <defs>
  <clipPath id="clipPath3837">
   <use transform="matrix(4.2627 0 0 2.2469 -5.3215 -89.615)" width="1" height="1" xlink:href="#rect3815"/>
  </clipPath>
  <filter id="filter3849" x="-.033146" y="-.20702" width="1.0663" height="1.414" color-interpolation-filters="sRGB">
   <feGaussianBlur stdDeviation="2.8087169"/>
  </filter>
  <filter id="filter3865" x="-.12343" y="-.040709" width="1.2469" height="1.0814" color-interpolation-filters="sRGB">
   <feGaussianBlur stdDeviation="1.3339644"/>
  </filter>
  <linearGradient id="linearGradient3890" x1="10.012" x2="194.19" y1="29.367" y2="29.367" gradientTransform="matrix(.23459 0 0 .44507 1.2484 39.885)" gradientUnits="userSpaceOnUse">
   <stop stop-color="#d8d8d8" offset="0"/>
   <stop stop-color="#d8d8d8" offset=".47753"/>
   <stop stop-color="#b1b1b1" offset="1"/>
  </linearGradient>
  <linearGradient id="linearGradient3892" x1="10.288" x2="193.92" y1="3.9798" y2="3.9798" gradientTransform="matrix(.23459 0 0 .44507 1.2484 39.885)" gradientUnits="userSpaceOnUse">
   <stop stop-color="#959595" offset="0"/>
   <stop stop-color="#565656" offset=".97345"/>
   <stop stop-color="#fff" offset="1"/>
  </linearGradient>
 </defs>
 <metadata>
  <rdf:RDF>
   <cc:Work rdf:about="">
    <dc:format>image/svg+xml</dc:format>
    <dc:type rdf:resource="http://purl.org/dc/dcmitype/StillImage"/>
    <dc:title/>
   </cc:Work>
  </rdf:RDF>
 </metadata>
 <g transform="translate(-1.7181 -40.001)">
  <g>
   <g transform="matrix(.23459 0 0 .44507 1.2484 39.885)" clip-path="url(#clipPath3837)">
    <path d="m-0.8125-7.1875 0.40625 2.25-5.125 4.9062-2.75 70.094 18.216 12.437 17.926-33.404-8.0796-34.689 171.19-2 24.812-16z" color="#000000" fill="#656565"/>
    <path d="m187.92 5.4975c3.8632-0.82783 28.146-6.0708 28.146-6.0708l-0.27594 72.573-12.417 6.8986-16.281-24.283z" color="#000000" fill="#d6d6d6" filter="url(#filter3865)"/>
    <path d="m3.5873 74.759 12.969-26.767 167.5-2.7594 21.8 26.767 1.1038 18.212-209.44 3.3113z" color="#000000" fill="#939393" filter="url(#filter3849)"/>
   </g>
   <rect id="rect3815" x="1.9605" y="40.244" width="47.58" height="31.44" rx="1.4242" ry="2.7019" color="#000000" fill="none" stroke="#727272" stroke-width=".48469"/>
   <rect x="3.7731" y="40.735" width="42.855" height="24.44" rx="1.4242" ry="2.7019" color="#000000" fill="url(#linearGradient3890)" stroke="url(#linearGradient3892)" stroke-width=".32313"/>
   <text transform="scale(.99764 1.0024)" x="11.633456" y="58.562302" fill="#4d4d4d" font-family="sans-serif" font-size="16.015px" letter-spacing="0px" stroke-width=".50048" word-spacing="0px" style="line-height:1.25" xml:space="preserve"><tspan x="11.633456" y="58.562302" fill="#4d4d4d" font-family="arial" font-size="16.015px" font-weight="bold" stroke-width=".50048">Ctrl</tspan></text>
  </g>
 </g>
</svg>
